<svg xmlns="http://www.w3.org/2000/svg" viewBox="0 0 500 500"><defs><style>.cls-1{fill:#fff;}.cls-2{fill:#313337;}.cls-3{fill:#ffca31;}.cls-4{fill:#c9764a;}</style></defs><g id="OBJECTS"><rect class="cls-1" x="22.19" y="122.84" width="455.61" height="254.31" rx="27.18"/><path class="cls-2" d="M274.3,343.78H217.89l-.37-69.27c10.13.06,20.25.53,30.33,1.23.34,4.74.74,9.49,1.28,14.23.29,2.51.6,5,1,7.54s.75,5,1.26,7.54c.51-2.51.91-5,1.26-7.54s.68-5,1-7.54c.52-4.56.91-9.12,1.24-13.68l6.55.58c1.63.15,3.27.24,4.9.43l4.91.51,2.92.28Z"/><path class="cls-2" d="M208.78,274.57l-31.3,52.67H150.2L122.77,283q5.17-.92,10.36-1.73c13.07-2.09,26.21-3.73,39.38-4.8q16.91-1.47,33.87-1.85c.22.29.44.59.7.88.26-.3.5-.61.72-.91Z"/><path class="cls-2" d="M95.12,287.75c4.91-1.17,10-2.29,15.19-3.35v54H53.9v-38.7l3.41-1.21c5.37-1.91,11.32-3.77,18.71-5.84h0c1-.31,2.08-.59,3.17-.89l1.55-.42,2.37-.64,2.37-.61,4.79-1.22Z"/><path class="cls-2" d="M164.12,256.92l-2.82,1.16c-.79.31-1.56.66-2.36.95l-2.4.86-4.81,1.75-4.88,1.53c-3.24,1.11-6.57,1.9-9.88,2.83-.82.22-1.64.48-2.48.65l-2.51.58-5,1.17-.32.06c-3.07.62-8.36,1.1-11.82,1.69l-2-3.22-2.5-4v13.72l-.42.1-.64.17q-2.49.63-5,1.29l-2.54.66-3.08.86c-2.18.6-4.42,1.22-6.61,1.88A361.37,361.37,0,0,0,53.9,294.89V160.11h50.9l57.06,93.13Z"/><path class="cls-2" d="M273.91,207.45l-.18-.2c-.57-.62-1.11-1.25-1.67-1.88l-3.32-3.77c-1.08-1.28-2.11-2.61-3.16-3.9-2.16-2.57-4.12-5.29-6.13-8-1-1.32-1.93-2.73-2.88-4.11l-2.83-4.16-9.54,1.06L244,183l-.22.52c-.15.36-.3.72-.47,1.08-.32.73-.67,1.46-1,2.19s-.73,1.46-1.1,2.19L240,191.13c-1.58,2.89-3.32,5.71-5.12,8.48a143.54,143.54,0,0,1-12.1,15.84,152.94,152.94,0,0,1-30.14,26.28c-1.37,1-2.83,1.8-4.25,2.71s-2.84,1.81-4.32,2.61l-4.4,2.48-4.5,2.31c-.76.38-1.5.79-2.26,1.15l-2.31,1.06c-1.54.69-3.07,1.42-4.63,2.1l-.39.16,57.25-96.2h50.91Z"/><path class="cls-2" d="M458,286.06a53.53,53.53,0,0,1-9.58,30.83q-9.57,14-28.47,22.56T372.46,348a187.45,187.45,0,0,1-44.6-5.25q-21.53-5.24-35.43-13.64L312.37,284a127.59,127.59,0,0,0,29.26,12.2,116.7,116.7,0,0,0,26.31,4.46c.38.6.74,1.21,1.07,1.84.21.36.38.74.56,1.12s.35.76.51,1.14l.53,1.26c.19.46.39.91.61,1.35a32,32,0,0,0,3,5.12,31.34,31.34,0,0,0,4,4.47,32.06,32.06,0,0,0,10.22,6.32c.95.33,1.9.71,2.88.95.49.13,1,.27,1.47.38l1.5.29.75.13.75.1,1.51.17,1.53.07.76,0,.76,0,1.53-.06c.5,0,1-.09,1.51-.15l.76-.07.75-.13,1.5-.27,1.48-.37.73-.19.73-.23,1.44-.48,1.41-.59.7-.29.68-.33,1.35-.68,1.31-.77.66-.39.62-.42,1.25-.86,1.19-.93.59-.47.56-.51,1.12-1,3.77-3.45-4.8-1.68-8.61-3-4.31-1.51-1.07-.37c-.32-.13-.59-.21-.87-.34a11.7,11.7,0,0,1-1.65-.85,12.07,12.07,0,0,1-2.82-2.43,12.51,12.51,0,0,1-2-3.24,12.23,12.23,0,0,1,4-14.32,12.36,12.36,0,0,1,7.82-2.55c.36,0,.71,0,1.06.07s.7.08,1.05.16a12.5,12.5,0,0,1,2,.57c1.43.53,2.86,1.05,4.27,1.6,2.85,1.07,5.67,2.21,8.48,3.37l1.85.76-.36-2c-.17-1-.29-1.92-.55-2.87s-.48-1.89-.75-2.83a36.43,36.43,0,0,0-2.31-5.43,34.1,34.1,0,0,0-3.3-5,30.76,30.76,0,0,0-4.24-4.3,28.82,28.82,0,0,0-5.07-3.37,28.13,28.13,0,0,0-5.67-2.28,30.37,30.37,0,0,0-12.18-.91,32.18,32.18,0,0,0-6,1.37c-.48.16-1,.32-1.43.52s-.95.37-1.41.59-.93.41-1.38.66l-1.31.69a20.94,20.94,0,0,1-4.62,1.88,20.82,20.82,0,0,1-10.09.12c-.43-.1-.83-.22-1.26-.33l-1.35-.41c-.9-.28-1.8-.54-2.7-.8-3.35-1-6.7-1.92-10.1-2.77-3-1.18-6.08-2.38-9.07-3.69q-9.39-4-18.33-8.89l-4.42-2.49c-.75-.41-1.47-.84-2.2-1.28l-2.17-1.3c-.72-.44-1.46-.86-2.17-1.31L314,241.13l-2.12-1.37c-.73-.45-1.42-.92-2.11-1.4l-4.18-2.85-4.07-3c-1.36-1-2.67-2-4-3.07l-1.36-1.06a64.89,64.89,0,0,1-.81-10.54,54,54,0,0,1,9.58-31.1q9.57-14,28.6-22.43t47.36-8.4a172.64,172.64,0,0,1,36.73,3.94,116,116,0,0,1,32.54,12.07l-18.64,44.87a140.83,140.83,0,0,0-26.36-10.24,95.77,95.77,0,0,0-24.8-3.4,51.07,51.07,0,0,0-14.17,1.57q-5.25,1.58-7.47,4.2a8.69,8.69,0,0,0-2.23,5.77q0,4.73,5.5,7.48a59.88,59.88,0,0,0,14.57,4.59q9.06,1.83,19.94,3.93a161.89,161.89,0,0,1,21.65,5.78,85,85,0,0,1,19.81,9.71,45.76,45.76,0,0,1,14.56,15.74Q458,271.63,458,286.06Z"/><polygon class="cls-3" points="165.62 256.31 164.69 257.86 164.12 256.92 165.62 256.31"/><path class="cls-4" d="M430.13,286.78v0c-.17-.95-.29-1.92-.54-2.87s-.49-1.89-.76-2.83a37,37,0,0,0-2.31-5.44,34,34,0,0,0-3.3-5,30.22,30.22,0,0,0-4.24-4.3,30.14,30.14,0,0,0-10.74-5.66,30.22,30.22,0,0,0-8.51-1.15H399l-.72,0c-.73.05-1.46.12-2.18.21a31.81,31.81,0,0,0-6,1.37c-.49.16-1,.32-1.44.52s-1,.36-1.41.59-.93.41-1.38.65l-1.31.69a20,20,0,0,1-4.62,1.88,21.45,21.45,0,0,1-5,.69h-.11a21.61,21.61,0,0,1-5-.56l-1.26-.34-1.35-.41-2.7-.79c-3.35-1-6.7-1.93-10.1-2.77-3.05-1.18-6.08-2.39-9.07-3.69q-9.39-4.05-18.32-8.89l-4.43-2.49c-.74-.41-1.47-.84-2.2-1.28l-2.17-1.3c-.72-.44-1.45-.86-2.17-1.31L314,241l-2.12-1.37c-.73-.45-1.42-.93-2.11-1.4l-4.18-2.86-4.07-3c-1.36-1-2.67-2-4-3.07l-1.36-1.07-.27-.2c-.78-.62-1.56-1.23-2.31-1.88l-3.84-3.26c-.65-.53-1.25-1.12-1.88-1.67l-3.74-3.38c-.61-.56-1.2-1.17-1.8-1.75l-3.6-3.51-3.46-3.65-1.55-1.62-.19-.19c-.56-.62-1.11-1.26-1.66-1.89l-3.32-3.77c-1.08-1.28-2.11-2.61-3.17-3.9-2.15-2.57-4.11-5.29-6.12-8-1-1.32-1.93-2.73-2.88-4.11l-2.83-4.15-9.55,1-.18.46-.22.52c-.15.36-.31.72-.48,1.09-.32.72-.67,1.45-1,2.19s-.73,1.45-1.09,2.18L239.79,191c-1.58,2.88-3.32,5.7-5.13,8.47a142.23,142.23,0,0,1-12.09,15.84,153,153,0,0,1-30.15,26.28c-1.36,1-2.82,1.8-4.24,2.71s-2.84,1.81-4.32,2.61l-4.4,2.49-4.5,2.31c-.76.38-1.5.79-2.27,1.14l-2.3,1.06c-1.54.69-3.08,1.42-4.63,2.1l-.4.17-.92,1.55-.58-.94-2.81,1.15c-.79.31-1.57.66-2.36.95l-2.4.86-4.81,1.75L146.6,263c-3.24,1.1-6.57,1.89-9.88,2.82-.83.22-1.65.48-2.49.66l-2.51.57-5,1.17-.33.07c-3.06.61-8.35,1.09-11.81,1.68-.43.07-.84.15-1.21.23l1.34,0,2.26,0c1.64,0,3.37,0,4.41-.07h.36l2.61-.1c.86-.05,1.73-.05,2.6-.14l5.19-.47c1.73-.16,3.47-.31,5.19-.59,3.44-.5,6.91-.94,10.32-1.68l5.15-1,5.1-1.28,2.55-.66c.84-.22,1.68-.5,2.52-.75l5-1.55c1.67-.55,3.31-1.19,5-1.78l2.48-.91c.84-.32,1.66-.68,2.49-1-.06.62-.1,1.22-.1,1.83a17.08,17.08,0,0,0,1,5.88,16,16,0,0,0,1.1,2.4q-4.22.45-8.43,1c-13.29,1.68-26.5,3.93-39.59,6.62-1.65.32-3.28.69-4.91,1.05l-4.89,1.09c-.77.17-1.53.34-2.3.53l-2.58.62-4.87,1.18-2.3.58-7.41,1.93c-3.21.91-6.44,1.76-9.63,2.73a360.36,360.36,0,0,0-37.8,13.17l-.49.21.39,1,.51-.18c6.23-2.22,12.6-4.14,19-5.93,1.59-.47,3.2-.89,4.79-1.33l2.4-.65,2.41-.62L89,289.93l4.84-1.16q8.07-1.92,16.18-3.56c4.14-.84,8.3-1.64,12.46-2.37,3.45-.61,6.9-1.2,10.35-1.74,13.08-2.09,26.21-3.73,39.39-4.8q16.91-1.47,33.86-1.85c.23.3.45.59.7.88.27-.3.5-.61.73-.91l1,0,3.28-.06c1.82,0,3.64,0,5.46,0,10.13.06,20.24.53,30.33,1.23.34,4.74.74,9.49,1.27,14.23.3,2.51.61,5,1,7.54s.76,5,1.27,7.54c.51-2.51.9-5,1.26-7.54s.68-5,1-7.54c.51-4.56.9-9.12,1.23-13.68l6.55.58c1.64.15,3.28.24,4.91.43l4.9.51,2.93.28,2,.19c1.63.15,3.27.29,4.9.5,3.26.38,6.53.74,9.8,1.1L293,280c.82.09,1.63.22,2.44.32l4.89.66,4.9.64,2.44.31,2.44.38c3.25.51,6.5,1,9.77,1.51l2.45.37c.81.12,1.62.3,2.43.43l4.87.87c9.31,1.53,18.54,3.46,27.83,5.4l.93.52a30.41,30.41,0,0,1,4.24,3,28.92,28.92,0,0,1,3.59,3.67c.61.77,1.18,1.57,1.71,2.39.38.6.74,1.21,1.07,1.84.21.36.38.74.56,1.12s.35.75.51,1.14l.53,1.26c.19.45.39.91.61,1.35a32,32,0,0,0,3.05,5.12,31.73,31.73,0,0,0,14.22,10.79c1,.33,1.9.71,2.88.95l1.47.38,1.5.29.75.13.75.1,1.52.17,1.52.07.73,0h.79l1.53-.06,1.51-.15.76-.07.75-.13,1.5-.28c.49-.11,1-.24,1.48-.37l.73-.18.73-.23,1.44-.48,1.41-.59.7-.29.68-.34,1.35-.67,1.32-.77.65-.39.62-.42,1.25-.86L420,318l.59-.47.57-.51,1.11-1,2.42-2.21a1.11,1.11,0,0,0,.31-.5,1.09,1.09,0,0,0-.33-1.13,1,1,0,0,0-.36-.22l-3.07-1.07-8.61-3-4.31-1.5-1.07-.37c-.31-.13-.59-.21-.87-.34a11.7,11.7,0,0,1-1.65-.85,12.08,12.08,0,0,1-5.26-13.35,12.42,12.42,0,0,1,11.43-9.18h.84c.36,0,.71,0,1.06.07s.7.08,1.05.16a12.5,12.5,0,0,1,2.05.57c1.43.53,2.86,1.05,4.27,1.6,2.85,1.07,5.67,2.21,8.48,3.37a1.06,1.06,0,0,0,.42.09,1.12,1.12,0,0,0,1-.59A1,1,0,0,0,430.13,286.78Zm-244.6-19.14a14.44,14.44,0,0,0,.79-1.83,17.34,17.34,0,0,0,.08-11.49l1.14-.55c1.62-.73,3.16-1.59,4.73-2.43s3.13-1.65,4.64-2.6q2.53-1.45,5-3.05a.42.42,0,0,1,0,.12,35.91,35.91,0,0,0-1.35,9.84,35.42,35.42,0,0,0,1.34,9.84c.07.27.16.53.24.79C196.57,266.66,191.05,267.1,185.53,267.64Zm31.69-2.12-3.48.13-2,.08.06-.24a35.43,35.43,0,0,0,1.35-9.84,36.31,36.31,0,0,0-1.36-9.84,31.74,31.74,0,0,0-1.86-4.91l-.26-.53q2.44-1.8,4.82-3.7a141.17,141.17,0,0,0,13.15-11.91l-.27.84a54.3,54.3,0,0,0-1.54,6.32,72.52,72.52,0,0,0,0,25.28,56.24,56.24,0,0,0,1.54,6.31c.18.57.37,1.14.57,1.7C224.34,265.28,220.78,265.39,217.22,265.52Zm31.67-66.2c-.57,5-1,10.05-1.34,15.08q-1,15.07-1,30.16,0,10.27.44,20.56-7.55-.09-15.1,0c.19-.54.36-1.08.54-1.63A54.08,54.08,0,0,0,234,257.2a69.29,69.29,0,0,0,1.11-12.64A70.2,70.2,0,0,0,234,231.92a54.3,54.3,0,0,0-1.54-6.32c-.33-1-.68-2.1-1.1-3.15-.14-.38-.3-.75-.46-1.12a145.8,145.8,0,0,0,12.64-16c2-3,3.89-6,5.65-9.2l.14-.26C249.16,197,249,198.18,248.89,199.32Zm18.9,58.79c.38,2.55.87,5.1,1.51,7.65,0,.15.07.3.11.44-4.73-.43-9.47-.63-14.22-.85q.47-10.4.46-20.79c0-10.05-.32-20.11-1-30.16-.34-5-.76-9.89-1.31-14.84,1.21,1.6,2.44,3.17,3.76,4.68,1.13,1.36,2.25,2.73,3.42,4.06l3.58,3.92c.59.65,1.18,1.32,1.79,2l1.87,1.88,2,2c-.16.59-.32,1.18-.47,1.78-.64,2.54-1.13,5.1-1.51,7.65a108.49,108.49,0,0,0,0,30.61Zm21.26-22a49.81,49.81,0,0,0-1.56,6,64.47,64.47,0,0,0-1.14,12.11,63.62,63.62,0,0,0,1.12,12.11c.13.68.29,1.36.45,2.05-2-.3-3.92-.58-5.87-.86-1.67-.27-3.34-.41-5-.59l-3-.3c.08-.31.17-.61.25-.92.63-2.55,1.12-5.1,1.5-7.65a103.62,103.62,0,0,0,1.08-15.31,105,105,0,0,0-1.09-15.3c-.23-1.51-.49-3-.8-4.51l.45.41c.65.59,1.29,1.2,2,1.78l2,1.72c1.35,1.13,2.68,2.3,4.06,3.4l4.19,3.24,1.8,1.33C289.32,235.29,289.18,235.7,289.05,236.11Zm18.09,11.35c-.34.84-.65,1.68-.92,2.52s-.43,1.43-.61,2.14a38.62,38.62,0,0,0-1.12,9.32,38,38,0,0,0,1.1,9.32c.08.29.15.58.23.87l-3.85-.76-5-1-1.95-.37c.27-1.05.51-2.11.71-3.16a62.82,62.82,0,0,0,1.12-12.11,64.46,64.46,0,0,0-1.13-12.11q-.33-1.68-.78-3.36,3.07,2.12,6.23,4.09c1.33.83,2.66,1.64,4,2.43.75.47,1.51.91,2.28,1.34Z"/></g></svg>